<?xml version="1.0" encoding="UTF-8"?>
<svg version="1.1" xmlns="http://www.w3.org/2000/svg" width="225" height="225">
<path d="M0 0 C74.25 0 148.5 0 225 0 C225 74.25 225 148.5 225 225 C150.75 225 76.5 225 0 225 C0 150.75 0 76.5 0 0 Z " fill="#FEFEFF" transform="translate(0,0)"/>
<path d="M0 0 C1.44244583 -0.00744736 1.44244583 -0.00744736 2.91403198 -0.01504517 C6.09015626 -0.02963007 9.26623057 -0.03646288 12.44238281 -0.04199219 C14.65570069 -0.04774689 16.86901856 -0.05350459 19.08233643 -0.05926514 C23.72253654 -0.06976484 28.36271937 -0.07561418 33.00292969 -0.07910156 C38.93546825 -0.08458244 44.86777686 -0.10860633 50.80024338 -0.13707352 C55.37287046 -0.15573962 59.9454426 -0.16090763 64.51810455 -0.16243744 C66.70447292 -0.16545578 68.89084051 -0.17345655 71.07717133 -0.18662262 C74.14276902 -0.20376513 77.20781072 -0.20178269 80.2734375 -0.1953125 C81.16829865 -0.20452728 82.06315979 -0.21374207 82.98513794 -0.22323608 C90.92834535 -0.17098125 98.20297104 1.35608526 104.20800781 6.84863281 C104.91570312 7.47125 105.62339844 8.09386719 106.35253906 8.73535156 C111.79110505 15.19299875 112.97751502 20.84818306 112.64550781 29.16113281 C112.62746094 30.03125 112.60941406 30.90136719 112.59082031 31.79785156 C112.54419217 33.91943189 112.47246858 36.04043616 112.39550781 38.16113281 C113.57886719 38.103125 114.76222656 38.04511719 115.98144531 37.98535156 C126.3666671 37.62492909 134.38885963 37.6817858 142.44238281 45.02832031 C148.89891315 51.88504882 150.85063553 58.19255548 150.78369141 67.39770508 C150.79157684 68.74540482 150.79157684 68.74540482 150.79962158 70.12033081 C150.81276259 73.07291344 150.80410514 76.0249515 150.79394531 78.97753906 C150.79596756 81.03824466 150.79888026 83.09894956 150.80264282 85.15965271 C150.80705803 89.47100665 150.80066024 93.7821737 150.78662109 98.09350586 C150.76951904 103.61380395 150.77938209 109.13366477 150.79733849 114.65394688 C150.80818877 118.90650211 150.80472442 123.15895399 150.79695511 127.41151237 C150.79495711 129.44683827 150.79739829 131.48217362 150.80439377 133.51748848 C150.81202983 136.36322965 150.80037417 139.20826626 150.78369141 142.05395508 C150.7897641 142.89100479 150.79583679 143.7280545 150.80209351 144.59046936 C150.74864759 149.52250974 150.08371726 152.86770189 147.39550781 157.16113281 C144.6031054 159.87827899 142.55939723 160.61857327 138.68847656 160.68457031 C132.84655753 160.50244557 129.30046731 158.19110742 124.70800781 154.78613281 C123.29338887 153.76997992 121.87288213 152.76196788 120.44628906 151.76269531 C119.83438721 151.3123291 119.22248535 150.86196289 118.59204102 150.39794922 C113.04608618 147.27515193 107.27935214 146.87397414 101.04858398 146.92163086 C100.2443248 146.9196167 99.44006561 146.91760254 98.61143494 146.91552734 C96.87582428 146.91199918 95.14020072 146.91272741 93.40459251 146.91730309 C90.6497317 146.92293071 87.89528657 146.91368101 85.14045715 146.90010071 C77.31163634 146.86311931 69.48295862 146.84440994 61.65405273 146.85571289 C56.85413259 146.86159038 52.05479957 146.84317783 47.25499916 146.80982399 C45.43511916 146.80191251 43.61517445 146.80308876 41.79530907 146.8138485 C30.27314688 146.87903964 21.68200785 146.49099154 12.52050781 138.72363281 C5.0384511 129.70115265 4.11513247 121.52362733 3.39550781 110.16113281 C2.86594482 110.51941162 2.33638184 110.87769043 1.79077148 111.24682617 C-0.60939199 112.86771921 -3.01313372 114.48322526 -5.41699219 116.09863281 C-6.25037109 116.66259766 -7.08375 117.2265625 -7.94238281 117.80761719 C-8.74482422 118.34580078 -9.54726563 118.88398438 -10.37402344 119.43847656 C-11.11241455 119.93597412 -11.85080566 120.43347168 -12.61157227 120.94604492 C-16.60071334 123.37823347 -20.01953292 123.4773369 -24.60449219 123.16113281 C-27.94818952 121.79325663 -29.28570596 120.66435824 -31.21986389 117.61116028 C-32.95971008 113.27604944 -33.03350104 109.70868943 -33.00854492 105.08569336 C-33.01540817 104.19219177 -33.02227142 103.29869019 -33.02934265 102.37811279 C-33.04759156 99.4345291 -33.04377499 96.49147951 -33.03808594 93.54785156 C-33.04264946 91.49290291 -33.04795554 89.43795578 -33.05397034 87.38301086 C-33.06289832 83.07827553 -33.06048275 78.77372572 -33.05053711 74.46899414 C-33.03906259 68.9679285 -33.05923751 63.46750622 -33.08845425 57.96652508 C-33.10685439 53.72241686 -33.10651592 49.47846162 -33.10081673 45.2343235 C-33.1006639 43.2070507 -33.10667608 41.17976727 -33.1191082 39.15253258 C-33.13408407 36.30953761 -33.12329193 33.46771562 -33.10620117 30.62475586 C-33.11586914 29.79692093 -33.12553711 28.969086 -33.13549805 28.11616516 C-33.02794025 19.5171592 -29.77892662 12.19835759 -23.60449219 6.16113281 C-15.76198483 0.88993934 -9.26141994 0.01146561 0 0 Z " fill="#BAD7FF" transform="translate(53.6044921875,29.8388671875)"/>
<path d="M0 0 C2.88176582 -0.05421311 5.76250008 -0.09377509 8.64453125 -0.125 C9.45539185 -0.14175781 10.26625244 -0.15851563 11.10168457 -0.17578125 C18.921718 -0.2392781 24.21371697 1.5461006 30.046875 6.8671875 C36.50340534 13.723916 38.45512771 20.03142267 38.38818359 29.23657227 C38.39606903 30.584272 38.39606903 30.584272 38.40411377 31.959198 C38.41725478 34.91178063 38.40859733 37.86381869 38.3984375 40.81640625 C38.40045975 42.87711185 38.40337245 44.93781674 38.40713501 46.9985199 C38.41155022 51.30987383 38.40515242 55.62104089 38.39111328 59.93237305 C38.37401123 65.45267114 38.38387428 70.97253195 38.40183067 76.49281406 C38.41268096 80.7453693 38.40921661 84.99782118 38.4014473 89.25037956 C38.3994493 91.28570546 38.40189048 93.32104081 38.40888596 95.35635567 C38.41652202 98.20209684 38.40486635 101.04713344 38.38818359 103.89282227 C38.39425629 104.72987198 38.40032898 105.56692169 38.40658569 106.42933655 C38.35313977 111.36137693 37.68820945 114.70656908 35 119 C32.20759759 121.71714618 30.16388942 122.45744046 26.29296875 122.5234375 C20.45104972 122.34131275 16.9049595 120.02997461 12.3125 116.625 C10.89788106 115.60884711 9.47737432 114.60083507 8.05078125 113.6015625 C7.43887939 113.15119629 6.82697754 112.70083008 6.1965332 112.23681641 C0.65057836 109.11401912 -5.11615568 108.71284133 -11.34692383 108.76049805 C-12.15118301 108.75848389 -12.9554422 108.75646973 -13.78407288 108.75439453 C-15.51968353 108.75086636 -17.25530709 108.75159459 -18.9909153 108.75617027 C-21.74577611 108.7617979 -24.50022124 108.7525482 -27.25505066 108.7389679 C-35.08387147 108.7019865 -42.91254919 108.68327713 -50.74145508 108.69458008 C-55.54137523 108.70045757 -60.34070825 108.68204501 -65.14050865 108.64869118 C-66.96038865 108.6407797 -68.78033336 108.64195595 -70.60019875 108.65271568 C-82.12236094 108.71790683 -90.71349996 108.32985873 -99.875 100.5625 C-104.35424881 95.16105291 -107.12119498 90.98010369 -107.1328125 83.92578125 C-107.13410156 83.17619141 -107.13539062 82.42660156 -107.13671875 81.65429688 C-107.13285156 80.88150391 -107.12898438 80.10871094 -107.125 79.3125 C-107.12886719 78.52810547 -107.13273437 77.74371094 -107.13671875 76.93554688 C-107.12667749 71.12667749 -107.12667749 71.12667749 -106 70 C-103.37528766 69.8961288 -100.77603404 69.8563857 -98.15063477 69.8581543 C-97.3277446 69.85467987 -96.50485443 69.85120544 -95.6570282 69.84762573 C-93.86238346 69.84025277 -92.06772951 69.83491564 -90.2730732 69.83133507 C-87.42635312 69.82418092 -84.57980656 69.80851881 -81.73313904 69.78999329 C-73.63632707 69.73749927 -65.53960511 69.68961691 -57.44262695 69.67407227 C-52.49404712 69.66394797 -47.54589629 69.63450178 -42.5974865 69.59275246 C-40.71621902 69.58049085 -38.83489077 69.5753123 -36.95358467 69.57755089 C-21.5103933 70.02084601 -21.5103933 70.02084601 -8.11427307 63.30888367 C-1.25003687 56.13672643 -0.54462732 48.67855751 -0.48828125 39.16015625 C-0.46135445 37.47701576 -0.46135445 37.47701576 -0.43388367 35.75987244 C-0.3799251 32.19411925 -0.34593049 28.62849885 -0.3125 25.0625 C-0.27931427 22.63735138 -0.24482345 20.21222024 -0.20898438 17.78710938 C-0.12420684 11.85819201 -0.05579587 5.92925715 0 0 Z " fill="#559BFF" transform="translate(166,68)"/>
</svg>
